<svg width="1516" height="307" viewBox="0 0 1516 307" fill="none" xmlns="http://www.w3.org/2000/svg">
<path d="M3 138C85.3333 113.167 281.2 82.3001 406 157.5C562 251.5 691.5 275.5 750 216.5C808.5 157.5 813 40.5001 902.5 40.5001C992 40.5001 1051 25.0001 1195.5 216.5C1311.1 369.7 1452 194.333 1508 87.5001" stroke="#E8DFD2" stroke-width="17" stroke-dasharray="34 34"/>
<path d="M231.37 98.4393C231.705 94.6186 232.139 88.3015 237.686 85.3461C243.232 82.3907 255.139 81.5215 265.404 82.3329C280.533 83.5261 292.296 88.6935 298.526 96.8772C302.195 101.699 303.669 107.235 302.773 112.883C302.012 117.721 298.468 124.38 285.906 128.641C278.035 131.31 268.158 132.417 258.809 131.68C247.523 130.791 235.516 129.685 232.721 122.927C231.141 119.114 230.881 116.584 230.876 110.749C230.874 105.952 231.037 102.264 231.37 98.4393ZM223.566 89.6513L222.596 122.522C222.515 125.3 220.555 127.078 215.959 127.028C200.872 126.86 184.835 118.168 188.273 103.674C191.528 89.9496 209.342 84.5143 218.106 85.0153C222.081 85.2377 223.657 86.6392 223.566 89.6513Z" fill="#E8DFD2"/>
<path d="M566.983 224.413C568.311 218.19 569.171 215.551 571.723 211.843C576.244 205.271 589.303 206.824 601.545 208.444C611.686 209.785 621.984 213.214 629.76 217.852C642.191 225.251 644.455 233.16 644.166 238.5C643.833 244.723 641.006 250.295 635.995 254.604C627.487 261.922 613.762 264.756 597.351 262.579C586.216 261.105 573.755 257.48 568.468 253.04C563.182 248.601 564.199 241.801 564.711 237.637C565.224 233.472 565.892 229.526 566.983 224.413ZM554.386 245.25L560.834 209.967C561.38 206.986 559.694 204.643 554.779 203.65C538.647 200.399 519.561 206.02 519.929 222.263C520.278 237.644 538.043 247.496 547.506 248.956C551.797 249.62 553.798 248.484 554.386 245.25Z" fill="#E8DFD2"/>
<path d="M928.599 33.1508C928.934 29.33 929.368 23.0129 934.915 20.0575C940.462 17.1022 952.368 16.2329 962.633 17.0444C977.762 18.2375 989.525 23.405 995.755 31.5886C999.424 36.4106 1000.9 41.9463 1000 47.5946C999.241 52.4328 995.698 59.0917 983.135 63.3529C975.265 66.0214 965.387 67.1287 956.038 66.3916C944.752 65.5021 932.746 64.396 929.95 57.638C928.371 53.8253 928.11 51.2952 928.105 45.4605C928.103 40.6631 928.267 36.9751 928.599 33.1508ZM920.795 24.3627L919.826 57.2338C919.745 60.0112 917.785 61.7897 913.188 61.739C898.102 61.5713 882.064 52.8792 885.502 38.3859C888.757 24.661 906.571 19.2257 915.335 19.7267C919.31 19.9491 920.886 21.3506 920.795 24.3627Z" fill="#E8DFD2"/>
<path d="M1273.98 265.866C1275.31 259.644 1276.17 257.004 1278.72 253.297C1283.24 246.724 1296.3 248.277 1308.54 249.897C1318.69 251.239 1328.98 254.668 1336.76 259.306C1349.19 266.704 1351.45 274.613 1351.17 279.954C1350.83 286.176 1348.01 291.749 1343 296.057C1334.49 303.375 1320.76 306.21 1304.35 304.032C1293.22 302.559 1280.75 298.933 1275.47 294.494C1270.18 290.054 1271.2 283.254 1271.71 279.09C1272.22 274.925 1272.89 270.98 1273.98 265.866ZM1261.39 286.704L1267.83 251.42C1268.38 248.439 1266.69 246.096 1261.78 245.104C1245.65 241.852 1226.56 247.474 1226.93 263.716C1227.28 279.097 1245.04 288.949 1254.51 290.409C1258.8 291.074 1260.8 289.938 1261.39 286.704Z" fill="#E8DFD2"/>
</svg>
